# xmcd
# Track frame offsets:
# 150
# 15460
# 37437
#
# Disc length: 752 seconds
# Revision: 0
# Processed by: cddbd v1.4PL0 Copyright (c) Steve Scherf et al.
# Submitted via: VisiTrax 2.9.5.180 - For more info visit www.synapsa.com
#
DISCID=2002ee03
DTITLE=P.J.Proby - The New Voice Of Country
DYEAR=1989
DGENRE=
TTITLE0=Hot California Nights
TTITLE1=America Trilogy
TTITLE2=Seas Of Time
EXTD=
EXTT0=
EXTT1=
EXTT2=
PLAYORDER=
